<svg id="mechanical-gears" xmlns="http://www.w3.org/2000/svg" xmlns:xlink="http://www.w3.org/1999/xlink" viewBox="0 0 200 200" shape-rendering="geometricPrecision" text-rendering="geometricPrecision">
<style><![CDATA[
#mechanical-gears-s-path1_tr {animation: mechanical-gears-s-path1_tr__tr 3000ms linear infinite normal forwards}@keyframes mechanical-gears-s-path1_tr__tr { 0% {transform: translate(63.277px,68.926362px) rotate(720deg)} 100% {transform: translate(63.277px,68.926362px) rotate(360deg)}} #mechanical-gears-s-path2_tr {animation: mechanical-gears-s-path2_tr__tr 3000ms linear infinite normal forwards}@keyframes mechanical-gears-s-path2_tr__tr { 0% {transform: translate(138.98315px,150.282497px) rotate(360deg)} 100% {transform: translate(138.98315px,150.282497px) rotate(720deg)}} #mechanical-gears-s-path3_tr {animation: mechanical-gears-s-path3_tr__tr 3000ms linear infinite normal forwards}@keyframes mechanical-gears-s-path3_tr__tr { 0% {transform: translate(164.406998px,69.49165px) rotate(129600deg)} 100% {transform: translate(164.406998px,69.49165px) rotate(129960deg)}}
]]></style>
<g id="mechanical-gears-s-g1" clip-path="url(#mechanical-gears-u-clip0_10_68)"><g id="mechanical-gears-s-g2"><g id="mechanical-gears-s-path1_tr" transform="translate(63.277,68.926362) rotate(720)"><path id="mechanical-gears-s-path1" d="M89.8835,112.425c4.0321-2.558,7.6839-5.678,10.8485-9.255l11.408,6.69l10.388-18.27-11.386-6.6751c1.448-4.4876,2.299-9.2477,2.459-14.1819l12.953-2.3191-3.609-20.7753-12.951,2.3191c-1.789-4.5041-4.19-8.6922-7.102-12.4561l8.465-10.2429L95.4423,13.6994L86.984,23.9337c-4.1313-2.2479-8.6051-3.9283-13.32-4.9367v-13.34728h-20.7753v13.34728c-4.7154,1.0084-9.1892,2.6888-13.3209,4.9367L31.11,13.6994L15.195,27.2591l8.4645,10.243c-2.9114,3.7638-5.3125,7.9525-7.1022,12.4561L3.60708,47.6391L0,68.4144l12.9507,2.3191c.1596,4.9347,1.0116,9.6938,2.4592,14.1829L4.02354,91.591L14.4116,109.86l11.4088-6.687c3.1635,3.575,6.8153,6.695,10.8479,9.253l-4.5034,12.562l19.5231,7.214l4.4971-12.545c2.3177.333,4.6845.51,7.0913.51c2.4067,0,4.774-.176,7.0917-.51l4.4967,12.546l19.522-7.216-4.5033-12.562ZM63.2754,95.9737c-14.6294,0-26.5313-12.085-26.5313-26.9405c0-14.8544,11.9019-26.9404,26.5313-26.9404s26.5313,12.086,26.5313,26.9404c0,14.8555-11.9014,26.9405-26.5313,26.9405Z" transform="translate(-63.277,-68.926362)" fill="#fff"/></g><g id="mechanical-gears-s-path2_tr" transform="translate(138.98315,150.282497) rotate(360)"><path id="mechanical-gears-s-path2" d="M179.567,129.497l-9.022,2.893c-1.721-2.964-3.848-5.647-6.296-7.983l5.042-7.975-12.696-7.884-5.039,7.969c-3.171-1.16-6.53-1.89-9.998-2.127l-1.308-9.305-14.839,2.05l1.308,9.305c-3.269,1.167-6.301,2.782-9.031,4.756l-7.043-6.301-10.039,11.022l7.049,6.308c-1.71,2.911-3.013,6.067-3.85,9.385l-9.4777-.34-.542,14.838l9.4777.341c.598,3.425,1.673,6.656,3.148,9.644l-7.4782,5.777l9.2102,11.711l7.493-5.787c2.61,2.18,5.525,3.994,8.655,5.381l-1.986,9.203l14.652,3.102l1.984-9.189c1.688.005,3.395-.109,5.113-.345c1.72-.237,3.394-.595,5.016-1.054l4.443,8.302l13.237-6.957-4.448-8.312c2.63-2.182,4.93-4.718,6.841-7.522l8.803,3.537l5.63-13.761-8.786-3.531c.592-3.27.734-6.673.366-10.13l9.025-2.894-4.614-14.127ZM141.685,169.08c-10.451,1.442-20.137-5.809-21.592-16.165-1.458-10.357,5.86-19.957,16.31-21.399c10.45-1.444,20.134,5.808,21.593,16.165c1.454,10.356-5.861,19.954-16.311,21.399Z" transform="translate(-138.98315,-150.282497)" fill="#b4b4b4"/></g><g id="mechanical-gears-s-path3_tr" transform="translate(164.406998,69.49165) rotate(129600)"><path id="mechanical-gears-s-path3" d="M199.649,76.3636L200,64.6778l-7.47-.2197c-.469-2.5754-1.306-5.1257-2.533-7.5778l5.866-4.5881-7.319-9.1716-5.866,4.5863c-2.092-1.7209-4.406-3.124-6.863-4.183l1.517-7.2551-11.562-2.3705-1.52,7.2504c-2.664.0038-5.347.3782-7.976,1.1444l-3.542-6.513-10.399,5.5437l3.543,6.514c-2.091,1.7489-3.886,3.7645-5.357,5.9622l-6.948-2.7377-4.367,10.8621l6.954,2.742c-.458,2.6134-.547,5.2942-.246,7.9706l-7.098,2.324l3.706,11.1003l7.098-2.323c1.39,2.3657,3.08,4.4581,4.997,6.2635l-3.926,6.2953l10.047,6.1429l3.935-6.3071c2.533.8996,5.19,1.4476,7.886,1.6198l1.079,7.3323l11.687-1.69-1.076-7.3228c1.247-.4541,2.478-1.0007,3.683-1.6431c1.206-.6415,2.344-1.3603,3.414-2.1399l5.583,4.9207l7.854-8.7293-5.587-4.9264c1.34-2.3249,2.337-4.8226,2.973-7.4108l7.482.2202Zm-28.14,6.2616c-7.324,3.9034-16.49,1.1823-20.431-6.0652-3.945-7.2485-1.195-16.3238,6.129-20.2253c7.32-3.9045,16.486-1.1815,20.43,6.067c3.941,7.249,1.194,16.3195-6.128,20.2235Z" transform="translate(-164.406998,-69.49165)" fill="#f70000"/></g></g><clipPath id="mechanical-gears-u-clip0_10_68"><rect id="mechanical-gears-s-rect1" width="200" height="200" rx="0" ry="0" fill="#fff"/></clipPath></g></svg>
