<svg width="200" height="200" viewBox="0 0 200 200" fill="none" xmlns="http://www.w3.org/2000/svg">
<g clip-path="url(#clip0_10_68)">
<path d="M89.8835 112.425C93.9156 109.867 97.5674 106.747 100.732 103.17L112.14 109.86L122.528 91.59L111.142 84.9149C112.59 80.4273 113.441 75.6672 113.601 70.733L126.554 68.4139L122.945 47.6386L109.994 49.9577C108.205 45.4536 105.804 41.2655 102.892 37.5016L111.357 27.2587L95.4423 13.6994L86.984 23.9337C82.8527 21.6858 78.3789 20.0054 73.664 18.997V5.64972H52.8887V18.997C48.1733 20.0054 43.6995 21.6858 39.5678 23.9337L31.11 13.6994L15.195 27.2591L23.6595 37.5021C20.7481 41.2659 18.347 45.4546 16.5573 49.9582L3.60708 47.6391L0 68.4144L12.9507 70.7335C13.1103 75.6682 13.9623 80.4273 15.4099 84.9164L4.02354 91.591L14.4116 109.86L25.8204 103.173C28.9839 106.748 32.6357 109.868 36.6683 112.426L32.1649 124.988L51.688 132.202L56.1851 119.657C58.5028 119.99 60.8696 120.167 63.2764 120.167C65.6831 120.167 68.0504 119.991 70.3681 119.657L74.8648 132.203L94.3868 124.987L89.8835 112.425ZM63.2754 95.9737C48.646 95.9737 36.7441 83.8887 36.7441 69.0332C36.7441 54.1788 48.646 42.0928 63.2754 42.0928C77.9048 42.0928 89.8067 54.1788 89.8067 69.0332C89.8067 83.8887 77.9053 95.9737 63.2754 95.9737Z" fill="white"/>
<path d="M179.567 129.497L170.545 132.39C168.824 129.426 166.697 126.743 164.249 124.407L169.291 116.432L156.595 108.548L151.556 116.517C148.385 115.357 145.026 114.627 141.558 114.39L140.25 105.085L125.411 107.135L126.719 116.44C123.45 117.607 120.418 119.222 117.688 121.196L110.645 114.895L100.606 125.917L107.655 132.225C105.945 135.136 104.642 138.292 103.805 141.61L94.3273 141.27L93.7853 156.108L103.263 156.449C103.861 159.874 104.936 163.105 106.411 166.093L98.9328 171.87L108.143 183.581L115.636 177.794C118.246 179.974 121.161 181.788 124.291 183.175L122.305 192.378L136.957 195.48L138.941 186.291C140.629 186.296 142.336 186.182 144.054 185.946C145.774 185.709 147.448 185.351 149.07 184.892L153.513 193.194L166.75 186.237L162.302 177.925C164.932 175.743 167.232 173.207 169.143 170.403L177.946 173.94L183.576 160.179L174.79 156.648C175.382 153.378 175.524 149.975 175.156 146.518L184.181 143.624L179.567 129.497ZM141.685 169.08C131.234 170.522 121.548 163.271 120.093 152.915C118.635 142.558 125.953 132.958 136.403 131.516C146.853 130.072 156.537 137.324 157.996 147.681C159.45 158.037 152.135 167.635 141.685 169.08Z" fill="#B4B4B4"/>
<path d="M199.649 76.3636L200 64.6778L192.53 64.4581C192.061 61.8827 191.224 59.3324 189.997 56.8803L195.863 52.2922L188.544 43.1206L182.678 47.7069C180.586 45.986 178.272 44.5829 175.815 43.5239L177.332 36.2688L165.77 33.8983L164.25 41.1487C161.586 41.1525 158.903 41.5269 156.274 42.2931L152.732 35.7801L142.333 41.3238L145.876 47.8378C143.785 49.5867 141.99 51.6023 140.519 53.8L133.571 51.0623L129.204 61.9244L136.158 64.6664C135.7 67.2798 135.611 69.9606 135.912 72.637L128.814 74.961L132.52 86.0613L139.618 83.7383C141.008 86.104 142.698 88.1964 144.615 90.0018L140.689 96.2971L150.736 102.44L154.671 96.1329C157.204 97.0325 159.861 97.5805 162.557 97.7527L163.636 105.085L175.323 103.395L174.247 96.0722C175.494 95.6181 176.725 95.0715 177.93 94.4291C179.136 93.7876 180.274 93.0688 181.344 92.2892L186.927 97.2099L194.781 88.4806L189.194 83.5542C190.534 81.2293 191.531 78.7316 192.167 76.1434L199.649 76.3636ZM171.509 82.6252C164.185 86.5286 155.019 83.8075 151.078 76.56C147.133 69.3115 149.883 60.2362 157.207 56.3347C164.527 52.4302 173.693 55.1532 177.637 62.4017C181.578 69.6507 178.831 78.7212 171.509 82.6252Z" fill="#F70000"/>
</g>
<defs>
<clipPath id="clip0_10_68">
<rect width="200" height="200" fill="white"/>
</clipPath>
</defs>
</svg>
